<svg id="Capa_1" enable-background="new 0 0 512 512" height="512" viewBox="0 0 512 512" width="512" xmlns="http://www.w3.org/2000/svg"><g><path d="m109.677 454.083-38.118-38.119c-8.484-8.484-8.483-22.24.001-30.724l76.238-76.237c8.483-8.484 22.239-8.484 30.724 0 8.484 8.484 8.483 22.24-.001 30.724l-60.875 60.875 22.757 22.757c8.484 8.484 8.483 22.24-.001 30.724-8.483 8.483-22.238 8.486-30.725 0z" fill="#e58996"/><path d="m208.153 504.5c-11.999 0-21.725-9.727-21.725-21.725v-126.557c0-11.999 9.727-21.725 21.725-21.725 11.999 0 21.725 9.727 21.725 21.725v126.556c.001 11.999-9.726 21.726-21.725 21.726z" fill="#e58996"/><path d="m319.229 292.063c0-56.664-17.624-90.68-31.784-118.012-6.352-12.26-11.659-22.519-14.946-33.498-1.279-4.273 3.26-7.971 7.154-5.795 12.314 6.881 26.951 10.876 42.663 10.876 43.753 0 79.221-30.923 79.221-69.067 0-38.145-35.469-69.067-79.221-69.067-78.662 0-120.273 44.799-120.273 108.175 0 38.85 13.838 65.561 26.048 89.127 12.428 23.99 24.172 46.656 24.29 86.653z" fill="#f7d1e2"/><path d="m319.229 292.064c0-39.618-8.617-68.157-18.64-91.089-22.919-13.073-51.799-20.004-84.236-20.119 3.741 8.502 7.822 16.387 11.738 23.946 12.428 23.99 24.172 46.656 24.29 86.653z" fill="#f0b2c0"/><path d="m383.425 126.908c24.256 0 44.593 3.726 60.367 12.274 11.258 6.101 24.82-3.163 22.96-15.832-7.039-47.938-40.599-73.314-83.327-73.314-18.926 0-28.699 17.208-28.699 38.436s9.773 38.436 28.699 38.436z" fill="#e58996"/><g fill="#e16e7e"><path d="m390.353 50.278c-2.282-.152-4.588-.242-6.928-.242-18.926 0-28.699 17.208-28.699 38.436s9.772 38.436 28.699 38.436c11.551 0 22.201.857 31.905 2.665-30.873-20.062-34.249-61.376-24.977-79.295z"/><path d="m147.797 309.002-68.135 68.135c13.962 2.344 28.827 7.501 49.311 12.136l49.547-49.547c8.484-8.484 8.485-22.24.001-30.724-8.485-8.484-22.24-8.484-30.724 0z"/><path d="m208.153 334.493c-11.999 0-21.725 9.727-21.725 21.725v41.184c8.934.561 18.595.882 29.104.882 4.871 0 9.65-.171 14.346-.481v-41.584c.001-11.999-9.726-21.726-21.725-21.726z"/></g><path d="m319.229 292.064c0 51-46.426 76.22-103.697 76.22-84.735 0-109.043-21.925-148.918-22.424-17.092-.214-27.235-19.164-18.061-33.587 33.214-52.216 97.97-96.43 166.978-96.43 57.271 0 103.698 25.22 103.698 76.221z" fill="#f7d1e2"/><path d="m229.177 261.489c0 34.987-29.814 52.012-66.591 52.012s-87.763.636-87.763-28.089 27.822-75.934 87.763-75.934c36.777-.001 66.591 17.024 66.591 52.011z" fill="#f0b2c0"/><g><g><ellipse cx="288.766" cy="89.407" fill="#eca0aa" rx="28.919" ry="23.03"/></g></g><path d="m305.62 43.082c-11.726 0-21.265 9.54-21.265 21.265 0 4.142 3.357 7.5 7.5 7.5s7.5-3.358 7.5-7.5c0-3.455 2.811-6.265 6.265-6.265 3.455 0 6.266 2.811 6.266 6.265 0 4.142 3.357 7.5 7.5 7.5s7.5-3.358 7.5-7.5c0-11.726-9.54-21.265-21.266-21.265zm168.552 79.179c-6.334-43.13-33.863-71.926-73.428-78.356-14.278-26.8-44.568-43.905-78.428-43.905-78.813 0-127.773 44.324-127.773 115.675 0 37.792 11.679 63.167 26.983 92.76-7.019-.209-13.388-.069-20.665.554-10.792-4.546-23.69-7.012-38.275-7.012-36.433 0-59.17 16.076-71.828 29.563-11.807 12.579-19.955 28.654-22.547 43.837-9.935 10.345-18.68 21.387-25.986 32.871-12.367 19.442 1.364 44.824 24.295 45.112 8.254.103 15.762 1.176 23.483 2.83l-23.747 23.747c-11.42 11.421-11.423 29.908-.001 41.331l26.191 26.191c2.928 2.928 7.677 2.93 10.606 0 2.93-2.929 2.93-7.677.001-10.606l-26.191-26.191c-5.557-5.557-5.56-14.557.002-20.118l30.121-30.121c11.012 2.965 20.326 5.546 32.199 8.035l-26.842 26.842c-2.929 2.929-2.929 7.678 0 10.607l22.758 22.757c5.546 5.546 5.545 14.57-.002 20.118-2.411 2.412-5.608 3.877-9.004 4.128-4.131.304-7.232 3.9-6.928 8.031.306 4.16 3.937 7.237 8.031 6.928 6.98-.515 13.554-3.526 18.508-8.48 11.395-11.396 11.395-29.937.001-41.331l-17.454-17.454 28.9-28.9c6.69 1.015 13.913 1.895 21.775 2.576v108.497c0 16.115 13.11 29.225 29.226 29.225 16.115 0 29.226-13.11 29.226-29.225v-108.231c49.206-5.733 89.35-32.552 89.35-82.483 0-78.581-32.736-114.791-45.087-147.859 31.234 14.664 70.276 11.244 97.764-10.017 5.783.641 19.565-.435 37.224 3.273 4.053.853 8.029-1.745 8.881-5.798.852-4.054-1.745-8.03-5.799-8.881-10.659-2.239-22.868-3.373-36.287-3.373-15.63 0-21.198-15.981-21.198-30.936 0-14.956 5.568-30.936 21.198-30.936 41.378 0 69.755 25.011 75.906 66.904.73 4.971-3.177 8.956-7.725 9.158-4.138.183-7.344 3.687-7.16 7.825.182 4.115 3.658 7.34 7.824 7.161 13.191-.585 23.958-12.328 21.902-26.323zm-311.586 94.716c28.566 0 59.091 11.693 59.091 44.512 0 32.818-30.524 44.512-59.091 44.512-17.617.006-40.201.224-57.228-3.335-23.036-4.816-23.036-13.852-23.036-17.254 0-23.864 23.544-68.435 80.264-68.435zm59.793 265.798c0 7.844-6.382 14.225-14.226 14.225s-14.226-6.381-14.226-14.225v-107.495c8.26.395 19.785.671 28.451.375v107.12zm-6.847-121.991c-83.54 0-107.519-21.907-148.824-22.423-11.198-.14-17.867-12.564-11.826-22.062 4.324-6.798 9.208-13.433 14.575-19.85 11.268 26.51 63.926 24.456 93.129 24.552 45.009 0 74.091-23.36 74.091-59.512 0-15.21-5.164-28.142-14.48-38.037 65.85 2.161 89.532 36.452 89.532 68.611 0 33.222-25.271 68.721-96.197 68.721zm131.695-272.312c0 17.351 5.806 31.1 15.535 38.882-11.844 6.994-25.826 10.781-40.446 10.781-13.9 0-27.389-3.431-39.005-9.923-9.752-5.449-21.208 3.77-17.997 14.493 8.397 28.045 29.619 52.457 40.308 96.281-17.232-17.41-42.045-26.089-66.546-29.193-13.73-27.121-29.533-53.325-29.533-94.117-.001-63.041 42.157-100.676 112.773-100.676 24.524 0 46.696 10.507 59.79 27.571-20.919.739-34.879 18.99-34.879 45.901z"/></g></svg>